<?xml version="1.0" encoding="utf-8"?>
<!-- Generator: Adobe Illustrator 21.1.0, SVG Export Plug-In . SVG Version: 6.00 Build 0)  -->
<svg version="1.1" id="Layer_1" xmlns="http://www.w3.org/2000/svg" xmlns:xlink="http://www.w3.org/1999/xlink" x="0px" y="0px"
	 viewBox="0 0 36 36" style="enable-background:new 0 0 36 36;" xml:space="preserve">
<style type="text/css">
	.st0{fill:#863691;}
	.st1{fill:#3896D2;}
</style>
<g>
	<path class="st0" d="M4.6,27.6c2.3,0.9,4.4,1.6,6.7,1.9c1.9,0.3,3.8,0.4,5.7,0c3.5-0.7,5.8-2.8,7-6.1c0.7-1.9,1-3.9,1-5.9
		c-0.1-2.8,2.1-5.1,4.9-5.1s5.1,2.2,5.1,5c-0.1,4.8-1.9,9-5.4,12.3c-7.3,6.7-18.5,5.9-24.9-1.8C4.7,27.9,4.7,27.8,4.6,27.6z"/>
	<path class="st1" d="M21.7,24.5c-1.6,2.3-3.6,3.6-6.3,4c-2.7,0.4-5.3-0.1-7.9-0.9c-1.3-0.4-2.6-1-3.8-1.5c-0.2-0.1-0.4-0.3-0.5-0.5
		c-1.4-2.6-2.1-5.3-2.1-8.1c0-2,0.9-3.6,2.8-4.5c1.9-0.8,3.7-0.6,5.3,0.7c1.3,1.1,1.8,2.5,1.7,4.2c-0.2,3,1,5.2,3.5,6.7
		C16.8,26,19.2,25.9,21.7,24.5z"/>
	<path class="st0" d="M25,1.7c2.5,0,4.6,2,4.6,4.6s-2,4.6-4.6,4.6s-4.6-2-4.6-4.6C20.4,3.8,22.4,1.7,25,1.7z"/>
	<path class="st1" d="M10.9,10.9c-2.5,0-4.5-2-4.6-4.5c0-2.5,2-4.5,4.5-4.5s4.5,2,4.5,4.6C15.4,8.9,13.4,10.9,10.9,10.9z"/>
</g>
</svg>
